<svg width="54" height="55" viewBox="0 0 54 55" fill="none" xmlns="http://www.w3.org/2000/svg">
<circle cx="27.0488" cy="27.5166" r="24.792" stroke="#D9D9D9" stroke-width="4"/>
<path d="M17.9863 38.0176C17.9863 38.0176 16.1738 38.0176 16.1738 36.2676C16.1738 34.5176 17.9863 29.2676 27.0488 29.2676C36.1113 29.2676 37.9238 34.5176 37.9238 36.2676C37.9238 38.0176 36.1113 38.0176 36.1113 38.0176H17.9863ZM27.0488 27.5176C28.4909 27.5176 29.874 26.9645 30.8937 25.9799C31.9135 24.9953 32.4863 23.66 32.4863 22.2676C32.4863 20.8752 31.9135 19.5398 30.8937 18.5553C29.874 17.5707 28.4909 17.0176 27.0488 17.0176C25.6067 17.0176 24.2237 17.5707 23.2039 18.5553C22.1842 19.5398 21.6113 20.8752 21.6113 22.2676C21.6113 23.66 22.1842 24.9953 23.2039 25.9799C24.2237 26.9645 25.6067 27.5176 27.0488 27.5176Z" fill="#D9D9D9"/>
</svg>
