<svg width="174" height="49" viewBox="0 0 174 49" fill="none" xmlns="http://www.w3.org/2000/svg">
<path d="M79.4146 33.8716C78.4119 34.661 77.1212 35.269 75.5426 35.6956C73.9639 36.1223 72.2572 36.3356 70.4226 36.3356C68.2679 36.3356 66.4332 36.0583 64.9186 35.5036C63.4252 34.949 62.2946 34.181 61.5266 33.1996C60.7586 32.2183 60.3746 31.0876 60.3746 29.8076C60.3746 28.5703 60.7159 27.493 61.3986 26.5756C62.0812 25.6583 62.9986 24.9863 64.1506 24.5596C63.2759 24.0903 62.5826 23.4396 62.0706 22.6076C61.5799 21.7543 61.3346 20.805 61.3346 19.7596C61.3346 18.565 61.6866 17.4876 62.3906 16.5276C63.1159 15.5463 64.1932 14.7676 65.6226 14.1916C67.0519 13.5943 68.8119 13.2956 70.9026 13.2956C72.3106 13.2956 73.6866 13.445 75.0306 13.7436C76.3746 14.0423 77.5479 14.4476 78.5506 14.9596L77.3666 18.2556C75.4892 17.2743 73.3879 16.7836 71.0626 16.7836C69.2279 16.7836 67.8412 17.0823 66.9026 17.6796C65.9852 18.2556 65.5266 19.0343 65.5266 20.0156C65.5266 20.9756 65.8679 21.7116 66.5506 22.2236C67.2332 22.7143 68.2359 22.9596 69.5586 22.9596H75.4786V26.4156H69.3346C67.8199 26.4156 66.6466 26.6823 65.8146 27.2156C64.9826 27.7276 64.5666 28.4956 64.5666 29.5196C64.5666 30.5436 65.0679 31.3543 66.0706 31.9516C67.0732 32.549 68.5879 32.8476 70.6146 32.8476C72.0226 32.8476 73.3879 32.6556 74.7106 32.2716C76.0546 31.8876 77.1746 31.3543 78.0706 30.6716L79.4146 33.8716ZM98.8153 19.0556V36.0156H95.8713V33.3276C95.1887 34.2663 94.3247 34.981 93.2793 35.4716C92.234 35.9623 91.082 36.2076 89.8233 36.2076C88.1807 36.2076 86.7087 35.845 85.4073 35.1196C84.106 34.3943 83.082 33.381 82.3353 32.0796C81.61 30.757 81.2473 29.2423 81.2473 27.5356C81.2473 25.829 81.61 24.325 82.3353 23.0236C83.082 21.7223 84.106 20.709 85.4073 19.9836C86.7087 19.2583 88.1807 18.8956 89.8233 18.8956C91.0393 18.8956 92.1593 19.1303 93.1833 19.5996C94.2073 20.0476 95.0607 20.7196 95.7433 21.6156V19.0556H98.8153ZM90.0793 33.5196C91.146 33.5196 92.1167 33.2743 92.9913 32.7836C93.866 32.2716 94.5487 31.5676 95.0393 30.6716C95.53 29.7543 95.7753 28.709 95.7753 27.5356C95.7753 26.3623 95.53 25.3276 95.0393 24.4316C94.5487 23.5143 93.866 22.8103 92.9913 22.3196C92.1167 21.829 91.146 21.5836 90.0793 21.5836C88.9913 21.5836 88.01 21.829 87.1353 22.3196C86.282 22.8103 85.5993 23.5143 85.0873 24.4316C84.5967 25.3276 84.3513 26.3623 84.3513 27.5356C84.3513 28.709 84.5967 29.7543 85.0873 30.6716C85.5993 31.5676 86.282 32.2716 87.1353 32.7836C88.01 33.2743 88.9913 33.5196 90.0793 33.5196ZM109.492 36.2076C108.105 36.2076 106.772 36.0263 105.492 35.6636C104.212 35.2796 103.209 34.7996 102.484 34.2236L103.764 31.7916C104.51 32.325 105.417 32.7516 106.484 33.0716C107.55 33.3916 108.628 33.5516 109.716 33.5516C112.404 33.5516 113.748 32.7836 113.748 31.2476C113.748 30.7356 113.566 30.3303 113.204 30.0316C112.841 29.733 112.382 29.5196 111.828 29.3916C111.294 29.2423 110.526 29.0823 109.524 28.9116C108.158 28.6983 107.038 28.453 106.164 28.1756C105.31 27.8983 104.574 27.429 103.956 26.7676C103.337 26.1063 103.028 25.1783 103.028 23.9836C103.028 22.4476 103.668 21.221 104.948 20.3036C106.228 19.365 107.945 18.8956 110.1 18.8956C111.23 18.8956 112.361 19.0343 113.492 19.3116C114.622 19.589 115.55 19.9623 116.276 20.4316L114.964 22.8636C113.577 21.9676 111.945 21.5196 110.068 21.5196C108.766 21.5196 107.774 21.733 107.092 22.1596C106.409 22.5863 106.068 23.1516 106.068 23.8556C106.068 24.4103 106.26 24.8476 106.644 25.1676C107.028 25.4876 107.497 25.7223 108.052 25.8716C108.628 26.021 109.428 26.1916 110.452 26.3836C111.817 26.6183 112.916 26.8743 113.748 27.1516C114.601 27.4076 115.326 27.8556 115.924 28.4956C116.521 29.1356 116.82 30.0316 116.82 31.1836C116.82 32.7196 116.158 33.9463 114.836 34.8636C113.534 35.7596 111.753 36.2076 109.492 36.2076ZM128.307 33.5196C130.334 33.5196 131.966 32.837 133.203 31.4716L134.867 33.4556C134.12 34.3516 133.171 35.0343 132.019 35.5036C130.888 35.973 129.619 36.2076 128.211 36.2076C126.419 36.2076 124.83 35.845 123.443 35.1196C122.056 34.373 120.979 33.3383 120.211 32.0156C119.464 30.693 119.091 29.1996 119.091 27.5356C119.091 25.893 119.454 24.4103 120.179 23.0876C120.926 21.765 121.939 20.741 123.219 20.0156C124.52 19.269 125.982 18.8956 127.603 18.8956C129.139 18.8956 130.536 19.2476 131.795 19.9516C133.054 20.6343 134.056 21.605 134.803 22.8636C135.55 24.1223 135.934 25.573 135.955 27.2156L122.483 29.8396C122.91 31.013 123.624 31.9196 124.627 32.5596C125.651 33.1996 126.878 33.5196 128.307 33.5196ZM127.603 21.4876C126.536 21.4876 125.576 21.733 124.723 22.2236C123.891 22.7143 123.24 23.4076 122.771 24.3036C122.302 25.1783 122.067 26.2023 122.067 27.3756V27.6956L132.915 25.6476C132.638 24.4103 132.019 23.4076 131.059 22.6396C130.099 21.8716 128.947 21.4876 127.603 21.4876ZM146.237 16.3996V33.2316H150.557V36.0156H138.717V33.2316H143.037V16.3996H138.717V13.6156H150.557V16.3996H146.237ZM163.903 18.8956C166.057 18.8956 167.764 19.525 169.023 20.7836C170.303 22.021 170.943 23.845 170.943 26.2556V36.0156H167.871V26.6076C167.871 24.965 167.476 23.7276 166.687 22.8956C165.897 22.0636 164.767 21.6476 163.295 21.6476C161.631 21.6476 160.319 22.1383 159.359 23.1196C158.399 24.0796 157.919 25.4663 157.919 27.2796V36.0156H154.847V19.0556H157.791V21.6156C158.409 20.741 159.241 20.069 160.287 19.5996C161.353 19.1303 162.559 18.8956 163.903 18.8956Z" fill="#F5F5F5"/>
<g clip-path="url(#clip0_87_66)">
<rect y="0.619141" width="47.793" height="47.793" fill="#DAEAF4"/>
<path d="M-6.4443 47.8662C-0.97141 47.6852 6.1969 44.6758 7.68341 35.8144C9.54156 24.7377 13.9423 16.9998 29.5177 16.276C47.0008 15.4635 45.5048 4.96301 44.3462 -0.36576" stroke="url(#paint0_linear_87_66)" stroke-width="5"/>
<path d="M-0.318328 55.0811C5.15457 54.9 12.3229 51.8906 13.8094 43.0292C15.6675 31.9525 20.0683 24.2146 35.6437 23.4908C53.1268 22.6784 51.6308 12.1779 50.4722 6.84908" stroke="url(#paint1_linear_87_66)" stroke-width="5"/>
<path d="M5.67191 62.5069C11.1448 62.3258 18.3131 59.3164 19.7996 50.455C21.6578 39.3783 26.0585 31.6404 41.6339 30.9166C59.1171 30.1041 57.621 19.6036 56.4624 14.2749" stroke="url(#paint2_linear_87_66)" stroke-width="5"/>
</g>
<defs>
<linearGradient id="paint0_linear_87_66" x1="30.493" y1="0.144185" x2="31.1737" y2="32.5457" gradientUnits="userSpaceOnUse">
<stop stop-color="#0823FC"/>
<stop offset="1" stop-color="#0DD4F8"/>
</linearGradient>
<linearGradient id="paint1_linear_87_66" x1="36.619" y1="7.35903" x2="37.2997" y2="39.7605" gradientUnits="userSpaceOnUse">
<stop stop-color="#0823FC"/>
<stop offset="1" stop-color="#0DD4F8"/>
</linearGradient>
<linearGradient id="paint2_linear_87_66" x1="42.6092" y1="14.7848" x2="43.2899" y2="47.1863" gradientUnits="userSpaceOnUse">
<stop stop-color="#0823FC"/>
<stop offset="1" stop-color="#0DD4F8"/>
</linearGradient>
<clipPath id="clip0_87_66">
<rect y="0.619141" width="47.793" height="47.793" rx="11" fill="white"/>
</clipPath>
</defs>
</svg>
